<?xml version="1.0" encoding="UTF-8"?>
<svg version="1.1" xmlns="http://www.w3.org/2000/svg" width="180" height="80">
<path d="M0 0 C4.19586715 2.00805132 5.93440358 3.99019915 8.0078125 8.11328125 C8.51957031 9.11423828 9.03132813 10.11519531 9.55859375 11.14648438 C10.33396484 12.71366211 10.33396484 12.71366211 11.125 14.3125 C11.64964844 15.34568359 12.17429688 16.37886719 12.71484375 17.44335938 C13.71991869 19.42679208 14.71800782 21.41378517 15.70800781 23.40478516 C16.74233664 25.48243357 17.79966387 27.54488532 18.8671875 29.60546875 C20 32 20 32 20 34 C20.7528125 33.74605469 21.505625 33.49210937 22.28125 33.23046875 C37.16317519 28.40829153 52.33204127 25.70561247 68 26 C68.495 26.99 68.495 26.99 69 28 C67.93007812 28.12375 66.86015625 28.2475 65.7578125 28.375 C51.31961081 30.2546147 37.80038147 34.45480938 24 39 C24.33 39.33 24.66 39.66 25 40 C25.61294922 39.80365967 26.22589844 39.60731934 26.85742188 39.4050293 C56.41845431 30 56.41845431 30 69 30 C69 42.87 69 55.74 69 69 C63.26625 69.061875 57.5325 69.12375 51.625 69.1875 C49.83658691 69.21481201 48.04817383 69.24212402 46.20556641 69.27026367 C34.76824709 69.3736172 25.19971919 68.76468714 16.05078125 61.17578125 C12.46713012 57.37369805 8 51.43034624 8 46 C-8.9698274 55.10220758 -8.9698274 55.10220758 -23.39428711 67.61474609 C-25.45916694 69.39612487 -26.5354359 69.35030987 -29.23046875 69.29296875 C-30.03291016 69.28330078 -30.83535156 69.27363281 -31.66210938 69.26367188 C-32.49548828 69.23853516 -33.32886719 69.21339844 -34.1875 69.1875 C-35.4549707 69.16719727 -35.4549707 69.16719727 -36.74804688 69.14648438 C-38.83230384 69.11115799 -40.91623277 69.05735139 -43 69 C-42.37426628 64.48242891 -40.58163252 60.76004761 -38.53515625 56.7421875 C-38.18608215 56.04541397 -37.83700806 55.34864044 -37.47735596 54.63075256 C-36.34529661 52.37563809 -35.20434975 50.125171 -34.0625 47.875 C-33.28188585 46.32768614 -32.50153171 44.78024108 -31.72143555 43.23266602 C-29.49163951 38.81631244 -27.24829615 34.40695877 -25 30 C-24.44376953 28.9083252 -23.88753906 27.81665039 -23.31445312 26.69189453 C-9.18909746 -0.91890975 -9.18909746 -0.91890975 0 0 Z M-4 26 C-5.67643038 29.26591822 -7.33943344 32.53849107 -9 35.8125 C-9.47695313 36.74126953 -9.95390625 37.67003906 -10.4453125 38.62695312 C-10.89648438 39.51962891 -11.34765625 40.41230469 -11.8125 41.33203125 C-12.23144531 42.15421143 -12.65039062 42.9763916 -13.08203125 43.82348633 C-14.1943057 46.06700477 -14.1943057 46.06700477 -14 49 C-12.30230469 48.15115234 -12.30230469 48.15115234 -10.5703125 47.28515625 C-5.71354167 44.85677083 -0.85677083 42.42838542 4 40 C2.50829734 35.0276578 0.39542583 30.58154261 -2 26 C-2.66 26 -3.32 26 -4 26 Z M25 42 C27.10800725 46.21601451 27.98312458 47.67525264 32 50 C35.61891707 50.47944509 39.17031187 50.37719529 42.8125 50.25 C43.79154297 50.23195313 44.77058594 50.21390625 45.77929688 50.1953125 C48.18720771 50.14832887 50.59309335 50.08265694 53 50 C53 47.36 53 44.72 53 42 C43.76 42 34.52 42 25 42 Z " fill="#F81414" transform="translate(44,5)"/>
<path d="M0 0 C2.92032605 0.01039829 5.81337926 0.1842025 8.7265625 0.375 C10.19516964 0.41456936 11.66394108 0.44846576 13.1328125 0.4765625 C21.91944692 0.72657964 31.40080996 1.16937003 38.7265625 6.5625 C45.19028825 13.48792045 46.65897771 20.82097892 46.56640625 30.078125 C46.10421143 37.17071465 43.47543344 42.36499286 38.3515625 47.375 C32.54232445 50.93330041 27.55532535 52.50252735 20.71484375 52.47265625 C18.76674805 52.46782227 18.76674805 52.46782227 16.77929688 52.46289062 C15.40755142 52.45453531 14.03580663 52.44607037 12.6640625 52.4375 C11.28060055 52.43248335 9.89713687 52.42792073 8.51367188 52.42382812 C5.12625855 52.41202529 1.73893217 52.39556019 -1.6484375 52.375 C-1.63683594 53.51839844 -1.62523437 54.66179688 -1.61328125 55.83984375 C-1.60390462 57.33072754 -1.59480429 58.82161309 -1.5859375 60.3125 C-1.57755859 61.06724609 -1.56917969 61.82199219 -1.56054688 62.59960938 C-1.55191309 64.52494313 -1.59619417 66.45035581 -1.6484375 68.375 C-2.6484375 69.375 -2.6484375 69.375 -6.02734375 69.47265625 C-7.42190827 69.46598369 -8.81645493 69.45402532 -10.2109375 69.4375 C-10.92185547 69.43298828 -11.63277344 69.42847656 -12.36523438 69.42382812 C-14.12633763 69.41200864 -15.88739786 69.39407263 -17.6484375 69.375 C-19.15146231 66.36895038 -18.77838327 63.59834028 -18.78125 60.25 C-18.78220673 59.5472998 -18.78316345 58.84459961 -18.78414917 58.12060547 C-18.78482988 56.63443919 -18.7829832 55.14826994 -18.77880859 53.66210938 C-18.77345875 51.38404681 -18.77875722 49.10618141 -18.78515625 46.828125 C-18.78449545 45.38541623 -18.78321425 43.94270758 -18.78125 42.5 C-18.78012207 41.18257812 -18.77899414 39.86515625 -18.77783203 38.5078125 C-18.6484375 35.375 -18.6484375 35.375 -17.6484375 33.375 C-17.0891153 33.36913376 -16.52979309 33.36326752 -15.95352173 33.35722351 C-10.14608534 33.29342213 -4.33920997 33.20903816 1.46777344 33.11254883 C3.63664364 33.07923909 5.80560179 33.05122621 7.97460938 33.02856445 C11.08762188 32.99512945 14.1998239 32.94281987 17.3125 32.88671875 C18.2864975 32.88032883 19.260495 32.8739389 20.26400757 32.86735535 C21.16479034 32.84756119 22.06557312 32.82776703 22.99365234 32.80737305 C24.18612076 32.79071846 24.18612076 32.79071846 25.40267944 32.77372742 C27.7563859 32.5304099 27.7563859 32.5304099 29.3515625 29.375 C29.258419 25.03329096 29.258419 25.03329096 27.3515625 21.375 C25.94038548 21.25290076 24.52335791 21.19729128 23.10717773 21.16967773 C22.20631943 21.14973251 21.30546112 21.12978729 20.37730408 21.10923767 C19.39814529 21.09252518 18.41898651 21.07581268 17.41015625 21.05859375 C16.41274918 21.03781265 15.4153421 21.01703156 14.38771057 20.99562073 C11.18823407 20.93001363 7.98867268 20.87118866 4.7890625 20.8125 C2.62564211 20.76932538 0.46223044 20.72571145 -1.70117188 20.68164062 C-7.01683624 20.57432097 -12.33258584 20.47257573 -17.6484375 20.375 C-11.37876261 0.35457237 -11.37876261 0.35457237 0 0 Z " fill="#F71919" transform="translate(133.6484375,4.625)"/>
<path d="M0 0 C1.3808654 0.0001133 1.3808654 0.0001133 2.78962708 0.00022888 C4.26020821 0.00797081 4.26020821 0.00797081 5.76049805 0.01586914 C6.77444138 0.01728409 7.7883847 0.01869904 8.83305359 0.02015686 C12.06280501 0.02574211 15.29248642 0.03829194 18.5222168 0.05102539 C20.71557517 0.0560423 22.90893463 0.06060487 25.10229492 0.06469727 C30.47145932 0.07570671 35.84058306 0.0924302 41.2097168 0.11352539 C40.30688404 4.28399716 38.34723599 7.65005293 36.2097168 11.30102539 C35.84104492 11.94233398 35.47237305 12.58364258 35.0925293 13.24438477 C32.36443954 17.95880265 32.36443954 17.95880265 31.2097168 19.11352539 C28.60377118 19.23661993 26.02023019 19.29962964 23.4128418 19.32446289 C21.79824853 19.35254331 20.18366534 19.38120785 18.5690918 19.41040039 C16.01701259 19.4515946 13.46511903 19.48846946 10.9128418 19.51489258 C8.45410948 19.54257241 5.99623983 19.58845714 3.5378418 19.63696289 C2.40007294 19.64184219 2.40007294 19.64184219 1.23931885 19.64682007 C-3.266813 19.75091481 -6.21136073 20.32015883 -9.7902832 23.11352539 C-11.34629879 25.39197679 -12.55990138 27.65276174 -13.7902832 30.11352539 C-14.4502832 30.11352539 -15.1102832 30.11352539 -15.7902832 30.11352539 C-17.19119454 27.37598928 -18.55621 24.62204032 -19.9152832 21.86352539 C-20.31360352 21.0862207 -20.71192383 20.30891602 -21.12231445 19.50805664 C-21.67338867 18.3769043 -21.67338867 18.3769043 -22.2355957 17.22290039 C-22.58122559 16.53164063 -22.92685547 15.84038086 -23.28295898 15.12817383 C-23.7902832 13.11352539 -23.7902832 13.11352539 -23.05932617 11.0168457 C-19.52722497 5.71937341 -13.53634196 2.01072769 -7.40608215 0.54249573 C-4.88035843 0.12829702 -2.55643631 -0.00704252 0 0 Z " fill="#F71717" transform="translate(80.790283203125,5.886474609375)"/>
<path d="M0 0 C0.495 0.99 0.495 0.99 1 2 C-0.20914063 2.17015625 -1.41828125 2.3403125 -2.6640625 2.515625 C-11.81412874 3.85438469 -20.50131064 5.46033224 -29.3125 8.328125 C-32 9 -32 9 -35 8 C-35 7.01 -35 6.02 -35 5 C-32.10890187 3.39970332 -29.63141711 2.62137046 -26.3671875 2.1484375 C-25.47773437 2.01953125 -24.58828125 1.890625 -23.671875 1.7578125 C-22.74890625 1.63148437 -21.8259375 1.50515625 -20.875 1.375 C-19.97523437 1.2409375 -19.07546875 1.106875 -18.1484375 0.96875 C-12.06213162 0.11177015 -6.14267936 -0.16449155 0 0 Z " fill="#E94746" transform="translate(112,31)"/>
<path d="M0 0 C0.33 0.66 0.66 1.32 1 2 C-12.6332574 3.33257403 -12.6332574 3.33257403 -19 2 C-19 1.67 -19 1.34 -19 1 C-12.61773055 0.17648136 -6.43255401 -0.12086218 0 0 Z " fill="#DB7C79" transform="translate(112,31)"/>
<path d="M0 0 C1.32 0 2.64 0 4 0 C4.66 1.32 5.32 2.64 6 4 C4.02 4.33 2.04 4.66 0 5 C0 3.33333333 0 1.66666667 0 0 Z " fill="#E45D5B" transform="translate(77,35)"/>
</svg>
